<svg width="25" height="27" viewBox="0 0 25 27" fill="none" xmlns="http://www.w3.org/2000/svg">
<path d="M18.125 6.6875V2.375C18.125 1.82272 17.6773 1.375 17.125 1.375H1.625C1.07272 1.375 0.625 1.82272 0.625 2.375V21.625C0.625 22.1773 1.07272 22.625 1.625 22.625H17.125C17.6773 22.625 18.125 22.1773 18.125 21.625V17.3125" stroke="#4E69FE" stroke-linecap="round"/>
<path fill-rule="evenodd" clip-rule="evenodd" d="M0 2.62505C0 1.28103 1.37246 0.3735 2.60917 0.899759L11.3592 4.62316C12.0509 4.91754 12.5 5.59665 12.5 6.34845V24.6846C12.5 25.996 11.1882 26.9023 9.96165 26.4383L1.21165 23.1286C0.48244 22.8528 0 22.1545 0 21.3749V2.62505Z" fill="#4E69FE"/>
<path d="M14.375 12H23.75M23.75 12L20.625 8.875M23.75 12L20.625 15.125" stroke="#4E69FE" stroke-linecap="round" stroke-linejoin="round"/>
</svg>
