<svg width="24" height="22" viewBox="0 0 24 22" fill="none" xmlns="http://www.w3.org/2000/svg">
<path fill-rule="evenodd" clip-rule="evenodd" d="M2.125 0.25H21.875C22.9796 0.25 23.875 1.14543 23.875 2.25V16.5V20.5736C23.875 21.5134 22.6961 21.9342 22.101 21.2068L18.8502 17.2335C18.4703 16.7693 17.9021 16.5 17.3022 16.5H2.125C1.02043 16.5 0.125 15.6046 0.125 14.5V2.25C0.125 1.14543 1.02043 0.25 2.125 0.25ZM10.1124 5.71087C10.3077 5.5156 10.3077 5.19902 10.1124 5.00376C9.91712 4.80851 9.60054 4.80851 9.40528 5.00378L6.64644 7.76271C6.45118 7.95798 6.45119 8.27455 6.64645 8.46981L9.40528 11.2287C9.60055 11.4239 9.91713 11.4239 10.1124 11.2287C10.3077 11.0334 10.3077 10.7168 10.1124 10.5215L8.20711 8.61626H16C16.2761 8.61626 16.5 8.84012 16.5 9.11626V12.1251C16.5 12.4012 16.7239 12.6251 17 12.6251C17.2761 12.6251 17.5 12.4012 17.5 12.1251V9.11626C17.5 8.28783 16.8284 7.61626 16 7.61626H8.20708L10.1124 5.71087Z" fill="#4E69FE"/>
</svg>
